<svg width="72" height="72" viewBox="0 0 72 72" fill="none" xmlns="http://www.w3.org/2000/svg">
<g opacity="0.2" clip-path="url(#clip0_403_7)">
<path d="M55.6704 24.5254L56.6161 16.5815C56.6997 15.8792 56.5009 15.1725 56.0635 14.6168C55.626 14.0611 54.9857 13.7019 54.2834 13.6183L19.8598 9.52013C18.4552 9.35292 17.0418 9.75052 15.9303 10.6255C14.8189 11.5004 14.1006 12.781 13.9334 14.1856C13.7662 15.5902 14.1638 17.0036 15.0387 18.115C15.9136 19.2265 17.1943 19.9448 18.5988 20.112L58.3184 24.8406C59.0206 24.9243 59.6609 25.2834 60.0984 25.8391C60.5359 26.3948 60.7347 27.1016 60.6511 27.8039L59.3901 38.3957M59.3901 38.3957L51.4462 37.45C50.0416 37.2828 48.6282 37.6804 47.5167 38.5553C46.4053 39.4303 45.687 40.7109 45.5198 42.1154C45.3526 43.52 45.7502 44.9335 46.6251 46.0449C47.5 47.1563 48.7807 47.8747 50.1852 48.0419L58.1291 48.9876C58.8314 49.0712 59.5382 48.8724 60.0939 48.4349C60.6496 47.9975 61.0087 47.3572 61.0923 46.6549L61.7228 41.3589C61.8064 40.6567 61.6076 39.9499 61.1702 39.3942C60.7327 38.8385 60.0924 38.4793 59.3901 38.3957Z" stroke="white" stroke-width="5.33333" stroke-linecap="round" stroke-linejoin="round"/>
<path d="M13.934 14.1855L9.52059 51.2571C9.35338 52.6617 9.75097 54.0751 10.6259 55.1866C11.5009 56.298 12.7815 57.0163 14.186 57.1835L53.9056 61.9122C54.6078 61.9958 55.3146 61.797 55.8703 61.3595C56.426 60.922 56.7852 60.2817 56.8688 59.5794L58.1297 48.9876" stroke="white" stroke-width="5.33333" stroke-linecap="round" stroke-linejoin="round"/>
</g>
<defs>
<clipPath id="clip0_403_7">
<rect width="64" height="64" fill="white" transform="translate(7.56582) rotate(6.78915)"/>
</clipPath>
</defs>
</svg>
