<svg width="56" height="56" viewBox="0 0 56 56" fill="none" xmlns="http://www.w3.org/2000/svg">
<path d="M0 16C0 7.16344 7.16344 0 16 0H40C48.8366 0 56 7.16344 56 16V40C56 48.8366 48.8366 56 40 56H16C7.16344 56 0 48.8366 0 40V16Z" fill="#4F46E5" fill-opacity="0.1"/>
<path d="M36.1666 33.8332H38.5C39.2 33.8332 39.6666 33.3665 39.6666 32.6665V29.1665C39.6666 28.1165 38.85 27.1832 37.9166 26.9498C35.8166 26.3665 32.6666 25.6665 32.6666 25.6665C32.6666 25.6665 31.15 24.0332 30.1 22.9832C29.5166 22.5165 28.8166 22.1665 28 22.1665H19.8333C19.1333 22.1665 18.55 22.6332 18.2 23.2165L16.5666 26.5998C16.4122 27.0504 16.3333 27.5235 16.3333 27.9998V32.6665C16.3333 33.3665 16.8 33.8332 17.5 33.8332H19.8333" stroke="#4F46E5" stroke-width="2.33333" stroke-linecap="round" stroke-linejoin="round"/>
<path d="M22.1666 36.1667C23.4553 36.1667 24.5 35.122 24.5 33.8333C24.5 32.5447 23.4553 31.5 22.1666 31.5C20.878 31.5 19.8333 32.5447 19.8333 33.8333C19.8333 35.122 20.878 36.1667 22.1666 36.1667Z" stroke="#4F46E5" stroke-width="2.33333" stroke-linecap="round" stroke-linejoin="round"/>
<path d="M24.5 33.8335H31.5" stroke="#4F46E5" stroke-width="2.33333" stroke-linecap="round" stroke-linejoin="round"/>
<path d="M33.8333 36.1667C35.122 36.1667 36.1667 35.122 36.1667 33.8333C36.1667 32.5447 35.122 31.5 33.8333 31.5C32.5447 31.5 31.5 32.5447 31.5 33.8333C31.5 35.122 32.5447 36.1667 33.8333 36.1667Z" stroke="#4F46E5" stroke-width="2.33333" stroke-linecap="round" stroke-linejoin="round"/>
</svg>
