<svg width="49" height="49" viewBox="0 0 49 49" fill="none" xmlns="http://www.w3.org/2000/svg">
<g opacity="0.2">
<path d="M16.0353 28.0279C22.6627 28.0395 28.0447 22.6764 28.0564 16.049C28.068 9.42157 22.7049 4.03955 16.0775 4.02791C9.45005 4.01627 4.06804 9.37941 4.0564 16.0068C4.04476 22.6342 9.40789 28.0162 16.0353 28.0279Z" stroke="white" stroke-width="4" stroke-linecap="round" stroke-linejoin="round"/>
<path d="M36.2278 20.8036C38.1172 21.5118 39.7975 22.6849 41.1134 24.2146C42.4292 25.7442 43.3381 27.581 43.756 29.555C44.1738 31.529 44.0872 33.5764 43.5041 35.5081C42.921 37.4397 41.8602 39.1932 40.4199 40.6062C38.9796 42.0193 37.2062 43.0463 35.2638 43.5924C33.3213 44.1385 31.2726 44.1859 29.3069 43.7304C27.3413 43.2748 25.5222 42.331 24.018 40.9862C22.5138 39.6413 21.373 37.9389 20.7011 36.0363" stroke="white" stroke-width="4" stroke-linecap="round" stroke-linejoin="round"/>
<path d="M14.0628 12.0244L16.0628 12.0279L16.0488 20.0279" stroke="white" stroke-width="4" stroke-linecap="round" stroke-linejoin="round"/>
<path d="M33.4552 27.8185L34.8527 29.2409L29.2028 34.871" stroke="white" stroke-width="4" stroke-linecap="round" stroke-linejoin="round"/>
</g>
</svg>
