<svg width="56" height="56" viewBox="0 0 56 56" fill="none" xmlns="http://www.w3.org/2000/svg">
<path d="M0 16C0 7.16344 7.16344 0 16 0H40C48.8366 0 56 7.16344 56 16V40C56 48.8366 48.8366 56 40 56H16C7.16344 56 0 48.8366 0 40V16Z" fill="#F1F5F9"/>
<path d="M33.8334 16.3335H22.1667C20.878 16.3335 19.8334 17.3782 19.8334 18.6668V37.3335C19.8334 38.6222 20.878 39.6668 22.1667 39.6668H33.8334C35.122 39.6668 36.1667 38.6222 36.1667 37.3335V18.6668C36.1667 17.3782 35.122 16.3335 33.8334 16.3335Z" stroke="#1E293B" stroke-width="2.33333" stroke-linecap="round" stroke-linejoin="round"/>
<path d="M28 35H28.0117" stroke="#1E293B" stroke-width="2.33333" stroke-linecap="round" stroke-linejoin="round"/>
</svg>
