<svg width="56" height="56" viewBox="0 0 56 56" fill="none" xmlns="http://www.w3.org/2000/svg">
<path d="M0 16C0 7.16344 7.16344 0 16 0H40C48.8366 0 56 7.16344 56 16V40C56 48.8366 48.8366 56 40 56H16C7.16344 56 0 48.8366 0 40V16Z" fill="#10B981" fill-opacity="0.1"/>
<path d="M36.1666 30.3333C37.905 28.63 39.6666 26.5883 39.6666 23.9167C39.6666 22.2149 38.9906 20.5828 37.7872 19.3794C36.5839 18.176 34.9518 17.5 33.25 17.5C31.1966 17.5 29.75 18.0833 28 19.8333C26.25 18.0833 24.8033 17.5 22.75 17.5C21.0482 17.5 19.4161 18.176 18.2127 19.3794C17.0094 20.5828 16.3333 22.2149 16.3333 23.9167C16.3333 26.6 18.0833 28.6417 19.8333 30.3333L28 38.5L36.1666 30.3333Z" stroke="#10B981" stroke-width="2.33333" stroke-linecap="round" stroke-linejoin="round"/>
</svg>
