<svg width="48" height="48" viewBox="0 0 48 48" fill="none" xmlns="http://www.w3.org/2000/svg">
<path d="M0 16C0 7.16344 7.16344 0 16 0H32C40.8366 0 48 7.16344 48 16V32C48 40.8366 40.8366 48 32 48H16C7.16344 48 0 40.8366 0 32V16Z" fill="#4F46E5" fill-opacity="0.1"/>
<path d="M24 32.3332C28.6023 32.3332 32.3333 28.6022 32.3333 23.9998C32.3333 19.3975 28.6023 15.6665 24 15.6665C19.3976 15.6665 15.6666 19.3975 15.6666 23.9998C15.6666 28.6022 19.3976 32.3332 24 32.3332Z" stroke="#4F46E5" stroke-width="1.66667" stroke-linecap="round" stroke-linejoin="round"/>
<path d="M24 29C26.7614 29 29 26.7614 29 24C29 21.2386 26.7614 19 24 19C21.2386 19 19 21.2386 19 24C19 26.7614 21.2386 29 24 29Z" stroke="#4F46E5" stroke-width="1.66667" stroke-linecap="round" stroke-linejoin="round"/>
<path d="M24 25.6668C24.9205 25.6668 25.6667 24.9206 25.6667 24.0002C25.6667 23.0797 24.9205 22.3335 24 22.3335C23.0796 22.3335 22.3334 23.0797 22.3334 24.0002C22.3334 24.9206 23.0796 25.6668 24 25.6668Z" stroke="#4F46E5" stroke-width="1.66667" stroke-linecap="round" stroke-linejoin="round"/>
</svg>
