<svg width="56" height="56" viewBox="0 0 56 56" fill="none" xmlns="http://www.w3.org/2000/svg">
<path d="M0 16C0 7.16344 7.16344 0 16 0H40C48.8366 0 56 7.16344 56 16V40C56 48.8366 48.8366 56 40 56H16C7.16344 56 0 48.8366 0 40V16Z" fill="#F97316" fill-opacity="0.1"/>
<path d="M31.5 38.5V29.1667C31.5 28.8572 31.3771 28.5605 31.1583 28.3417C30.9395 28.1229 30.6428 28 30.3333 28H25.6667C25.3572 28 25.0605 28.1229 24.8417 28.3417C24.6229 28.5605 24.5 28.8572 24.5 29.1667V38.5" stroke="#F97316" stroke-width="2.33333" stroke-linecap="round" stroke-linejoin="round"/>
<path d="M17.5 25.6667C17.4999 25.3273 17.5739 24.9919 17.7168 24.684C17.8596 24.3762 18.0679 24.1031 18.3272 23.884L26.4938 16.8852C26.915 16.5293 27.4486 16.334 28 16.334C28.5514 16.334 29.085 16.5293 29.5062 16.8852L37.6728 23.884C37.9321 24.1031 38.1404 24.3762 38.2832 24.684C38.4261 24.9919 38.5001 25.3273 38.5 25.6667V36.1667C38.5 36.7855 38.2542 37.379 37.8166 37.8166C37.379 38.2542 36.7855 38.5 36.1667 38.5H19.8333C19.2145 38.5 18.621 38.2542 18.1834 37.8166C17.7458 37.379 17.5 36.7855 17.5 36.1667V25.6667Z" stroke="#F97316" stroke-width="2.33333" stroke-linecap="round" stroke-linejoin="round"/>
</svg>
