<svg width="56" height="56" viewBox="0 0 56 56" fill="none" xmlns="http://www.w3.org/2000/svg">
<path d="M0 16C0 7.16344 7.16344 0 16 0H40C48.8366 0 56 7.16344 56 16V40C56 48.8366 48.8366 56 40 56H16C7.16344 56 0 48.8366 0 40V16Z" fill="#EF4444" fill-opacity="0.1"/>
<path d="M21 16.3335L17.5 21.0002V37.3335C17.5 37.9523 17.7458 38.5458 18.1834 38.9834C18.621 39.421 19.2145 39.6668 19.8333 39.6668H36.1667C36.7855 39.6668 37.379 39.421 37.8166 38.9834C38.2542 38.5458 38.5 37.9523 38.5 37.3335V21.0002L35 16.3335H21Z" stroke="#EF4444" stroke-width="2.33333" stroke-linecap="round" stroke-linejoin="round"/>
<path d="M17.5 21H38.5" stroke="#EF4444" stroke-width="2.33333" stroke-linecap="round" stroke-linejoin="round"/>
<path d="M32.6666 25.6665C32.6666 26.9042 32.175 28.0912 31.2998 28.9663C30.4246 29.8415 29.2377 30.3332 28 30.3332C26.7623 30.3332 25.5753 29.8415 24.7001 28.9663C23.825 28.0912 23.3333 26.9042 23.3333 25.6665" stroke="#EF4444" stroke-width="2.33333" stroke-linecap="round" stroke-linejoin="round"/>
</svg>
