<svg width="56" height="56" viewBox="0 0 56 56" fill="none" xmlns="http://www.w3.org/2000/svg">
<path d="M0 16C0 7.16344 7.16344 0 16 0H40C48.8366 0 56 7.16344 56 16V40C56 48.8366 48.8366 56 40 56H16C7.16344 56 0 48.8366 0 40V16Z" fill="#4F46E5" fill-opacity="0.1"/>
<path d="M21 26.8335H25.6667" stroke="#4F46E5" stroke-width="2.33333" stroke-linecap="round" stroke-linejoin="round"/>
<path d="M23.3333 24.5V29.1667" stroke="#4F46E5" stroke-width="2.33333" stroke-linecap="round" stroke-linejoin="round"/>
<path d="M31.5 28H31.5117" stroke="#4F46E5" stroke-width="2.33333" stroke-linecap="round" stroke-linejoin="round"/>
<path d="M35 25.6665H35.0117" stroke="#4F46E5" stroke-width="2.33333" stroke-linecap="round" stroke-linejoin="round"/>
<path d="M34.2066 19.8335H21.7933C20.6386 19.8338 19.5251 20.2621 18.6679 21.0357C17.8106 21.8093 17.2707 22.8732 17.1523 24.0218C17.1453 24.0825 17.1406 24.1397 17.1325 24.1992C17.038 24.9855 16.3333 30.8655 16.3333 32.6668C16.3333 33.5951 16.7021 34.4853 17.3584 35.1417C18.0148 35.7981 18.9051 36.1668 19.8333 36.1668C21 36.1668 21.5833 35.5835 22.1666 35.0002L23.8163 33.3505C24.2538 32.9129 24.8472 32.667 25.466 32.6668H30.534C31.1528 32.667 31.7462 32.9129 32.1836 33.3505L33.8333 35.0002C34.4166 35.5835 35 36.1668 36.1666 36.1668C37.0949 36.1668 37.9851 35.7981 38.6415 35.1417C39.2979 34.4853 39.6666 33.5951 39.6666 32.6668C39.6666 30.8643 38.962 24.9855 38.8675 24.1992C38.8593 24.1408 38.8546 24.0825 38.8476 24.023C38.7296 22.8742 38.1897 21.81 37.3325 21.0361C36.4752 20.2623 35.3615 19.8338 34.2066 19.8335Z" stroke="#4F46E5" stroke-width="2.33333" stroke-linecap="round" stroke-linejoin="round"/>
</svg>
