<svg width="56" height="56" viewBox="0 0 56 56" fill="none" xmlns="http://www.w3.org/2000/svg">
<path d="M0 16C0 7.16344 7.16344 0 16 0H40C48.8366 0 56 7.16344 56 16V40C56 48.8366 48.8366 56 40 56H16C7.16344 56 0 48.8366 0 40V16Z" fill="#F59E0B" fill-opacity="0.1"/>
<path d="M17.5 16.3335V24.5002C17.5 25.7835 18.55 26.8335 19.8333 26.8335H24.5C25.1188 26.8335 25.7123 26.5877 26.1499 26.1501C26.5875 25.7125 26.8333 25.119 26.8333 24.5002V16.3335" stroke="#F59E0B" stroke-width="2.33333" stroke-linecap="round" stroke-linejoin="round"/>
<path d="M22.1667 16.3335V39.6668" stroke="#F59E0B" stroke-width="2.33333" stroke-linecap="round" stroke-linejoin="round"/>
<path d="M38.5 31.5002V16.3335C36.9529 16.3335 35.4692 16.9481 34.3752 18.042C33.2813 19.136 32.6667 20.6197 32.6667 22.1668V29.1668C32.6667 30.4502 33.7167 31.5002 35 31.5002H38.5ZM38.5 31.5002V39.6668" stroke="#F59E0B" stroke-width="2.33333" stroke-linecap="round" stroke-linejoin="round"/>
</svg>
