<svg width="49" height="49" viewBox="0 0 49 49" fill="none" xmlns="http://www.w3.org/2000/svg">
<path d="M0 7C0 3.13401 3.13401 0 7 0H42C45.866 0 49 3.13401 49 7V42C49 45.866 45.866 49 42 49H7C3.13401 49 0 45.866 0 42V7Z" fill="#1E40AF"/>
<path d="M32.6667 23.3333H16.3333C15.0447 23.3333 14 24.378 14 25.6667V33.8333C14 35.122 15.0447 36.1667 16.3333 36.1667H32.6667C33.9553 36.1667 35 35.122 35 33.8333V25.6667C35 24.378 33.9553 23.3333 32.6667 23.3333Z" stroke="white" stroke-width="2.33333" stroke-linecap="round" stroke-linejoin="round"/>
<path d="M18.6667 23.3333V18.6667C18.6667 17.1196 19.2813 15.6358 20.3752 14.5419C21.4692 13.4479 22.9529 12.8333 24.5 12.8333C26.0471 12.8333 27.5308 13.4479 28.6248 14.5419C29.7188 15.6358 30.3334 17.1196 30.3334 18.6667V23.3333" stroke="white" stroke-width="2.33333" stroke-linecap="round" stroke-linejoin="round"/>
</svg>
