<svg width="18" height="18" viewBox="0 0 18 18" fill="none" xmlns="http://www.w3.org/2000/svg">
<path d="M11.6666 15.3125V13.8542C11.6666 13.0806 11.3593 12.3388 10.8123 11.7918C10.2653 11.2448 9.52347 10.9375 8.74992 10.9375H4.37492C3.60137 10.9375 2.85951 11.2448 2.31252 11.7918C1.76554 12.3388 1.45825 13.0806 1.45825 13.8542V15.3125" stroke="#6B7280" stroke-width="1.45833" stroke-linecap="round" stroke-linejoin="round"/>
<path d="M6.56242 8.02083C8.17325 8.02083 9.47909 6.715 9.47909 5.10417C9.47909 3.49334 8.17325 2.1875 6.56242 2.1875C4.95159 2.1875 3.64575 3.49334 3.64575 5.10417C3.64575 6.715 4.95159 8.02083 6.56242 8.02083Z" stroke="#6B7280" stroke-width="1.45833" stroke-linecap="round" stroke-linejoin="round"/>
<path d="M16.0417 15.3125V13.8542C16.0413 13.2079 15.8262 12.5801 15.4302 12.0694C15.0343 11.5586 14.48 11.1938 13.8542 11.0323" stroke="#6B7280" stroke-width="1.45833" stroke-linecap="round" stroke-linejoin="round"/>
<path d="M11.6667 2.28229C12.2941 2.44292 12.8502 2.8078 13.2473 3.31939C13.6444 3.83098 13.86 4.46018 13.86 5.10781C13.86 5.75543 13.6444 6.38464 13.2473 6.89623C12.8502 7.40782 12.2941 7.77269 11.6667 7.93333" stroke="#6B7280" stroke-width="1.45833" stroke-linecap="round" stroke-linejoin="round"/>
</svg>
