<svg width="18" height="18" viewBox="0 0 18 18" fill="none" xmlns="http://www.w3.org/2000/svg">
<path d="M11.6667 15.3125V13.8542C11.6667 13.0806 11.3594 12.3388 10.8124 11.7918C10.2655 11.2448 9.52359 10.9375 8.75004 10.9375H4.37504C3.60149 10.9375 2.85963 11.2448 2.31265 11.7918C1.76566 12.3388 1.45837 13.0806 1.45837 13.8542V15.3125" stroke="white" stroke-width="1.45833" stroke-linecap="round" stroke-linejoin="round"/>
<path d="M6.56254 8.02083C8.17337 8.02083 9.47921 6.715 9.47921 5.10417C9.47921 3.49334 8.17337 2.1875 6.56254 2.1875C4.95171 2.1875 3.64587 3.49334 3.64587 5.10417C3.64587 6.715 4.95171 8.02083 6.56254 8.02083Z" stroke="white" stroke-width="1.45833" stroke-linecap="round" stroke-linejoin="round"/>
<path d="M16.0416 15.3125V13.8542C16.0411 13.2079 15.8261 12.5801 15.4301 12.0694C15.0342 11.5586 14.4798 11.1938 13.8541 11.0323" stroke="white" stroke-width="1.45833" stroke-linecap="round" stroke-linejoin="round"/>
<path d="M11.6666 2.2823C12.294 2.44293 12.8501 2.80781 13.2472 3.3194C13.6443 3.83099 13.8598 4.46019 13.8598 5.10782C13.8598 5.75544 13.6443 6.38465 13.2472 6.89624C12.8501 7.40783 12.294 7.7727 11.6666 7.93334" stroke="white" stroke-width="1.45833" stroke-linecap="round" stroke-linejoin="round"/>
</svg>
