<svg width="18" height="18" viewBox="0 0 18 18" fill="none" xmlns="http://www.w3.org/2000/svg">
<path d="M13.8542 5.10417V2.91667C13.8542 2.72328 13.7773 2.53781 13.6406 2.40107C13.5039 2.26432 13.3184 2.1875 13.125 2.1875H3.64583C3.25906 2.1875 2.88813 2.34115 2.61464 2.61464C2.34115 2.88813 2.1875 3.25906 2.1875 3.64583C2.1875 4.03261 2.34115 4.40354 2.61464 4.67703C2.88813 4.95052 3.25906 5.10417 3.64583 5.10417H14.5833C14.7767 5.10417 14.9622 5.18099 15.0989 5.31773C15.2357 5.45448 15.3125 5.63995 15.3125 5.83333V8.75M15.3125 8.75H13.125C12.7382 8.75 12.3673 8.90365 12.0938 9.17714C11.8203 9.45063 11.6667 9.82156 11.6667 10.2083C11.6667 10.5951 11.8203 10.966 12.0938 11.2395C12.3673 11.513 12.7382 11.6667 13.125 11.6667H15.3125C15.5059 11.6667 15.6914 11.5898 15.8281 11.4531C15.9648 11.3164 16.0417 11.1309 16.0417 10.9375V9.47917C16.0417 9.28578 15.9648 9.10031 15.8281 8.96357C15.6914 8.82682 15.5059 8.75 15.3125 8.75Z" stroke="white" stroke-width="1.45833" stroke-linecap="round" stroke-linejoin="round"/>
<path d="M2.1875 3.64583V13.8542C2.1875 14.2409 2.34115 14.6119 2.61464 14.8854C2.88813 15.1588 3.25906 15.3125 3.64583 15.3125H14.5833C14.7767 15.3125 14.9622 15.2357 15.0989 15.0989C15.2357 14.9622 15.3125 14.7767 15.3125 14.5833V11.6667" stroke="white" stroke-width="1.45833" stroke-linecap="round" stroke-linejoin="round"/>
</svg>
