<svg width="32" height="32" viewBox="0 0 32 32" fill="none" xmlns="http://www.w3.org/2000/svg">
<path d="M0 7C0 3.13401 3.13401 0 7 0H24.5C28.366 0 31.5 3.13401 31.5 7V24.5C31.5 28.366 28.366 31.5 24.5 31.5H7C3.13401 31.5 0 28.366 0 24.5V7Z" fill="#FEF9C2"/>
<path d="M22.8449 20.125L17.0116 9.91667C16.8844 9.69223 16.6999 9.50555 16.477 9.37568C16.2541 9.2458 16.0008 9.17737 15.7428 9.17737C15.4848 9.17737 15.2315 9.2458 15.0086 9.37568C14.7857 9.50555 14.6013 9.69223 14.4741 9.91667L8.64073 20.125C8.51216 20.3477 8.44475 20.6003 8.44532 20.8575C8.44589 21.1146 8.51442 21.367 8.64397 21.589C8.77352 21.8111 8.95948 21.995 9.183 22.1221C9.40653 22.2491 9.65967 22.3148 9.91677 22.3125H21.5834C21.8393 22.3122 22.0906 22.2447 22.3121 22.1166C22.5336 21.9885 22.7174 21.8043 22.8453 21.5827C22.9731 21.361 23.0403 21.1097 23.0403 20.8538C23.0402 20.5979 22.9728 20.3466 22.8449 20.125Z" stroke="#D08700" stroke-width="1.45833" stroke-linecap="round" stroke-linejoin="round"/>
<path d="M15.75 13.5625V16.4792" stroke="#D08700" stroke-width="1.45833" stroke-linecap="round" stroke-linejoin="round"/>
<path d="M15.75 19.3958H15.7573" stroke="#D08700" stroke-width="1.45833" stroke-linecap="round" stroke-linejoin="round"/>
</svg>
