<svg width="18" height="18" viewBox="0 0 18 18" fill="none" xmlns="http://www.w3.org/2000/svg">
<g clip-path="url(#clip0_38_2759)">
<path d="M7.4873 15.3125C7.61531 15.5342 7.7994 15.7183 8.02109 15.8462C8.24277 15.9742 8.49424 16.0416 8.75022 16.0416C9.0062 16.0416 9.25767 15.9742 9.47936 15.8462C9.70104 15.7183 9.88514 15.5342 10.0131 15.3125" stroke="#155DFC" stroke-width="1.45833" stroke-linecap="round" stroke-linejoin="round"/>
<path d="M2.37899 11.1752C2.28373 11.2796 2.22087 11.4094 2.19805 11.5489C2.17522 11.6884 2.19343 11.8315 2.25044 11.9608C2.30745 12.0901 2.40081 12.2001 2.51917 12.2773C2.63753 12.3546 2.77578 12.3957 2.91711 12.3958H14.5838C14.7251 12.3959 14.8634 12.3549 14.9818 12.2778C15.1002 12.2007 15.1937 12.0909 15.2509 11.9616C15.308 11.8324 15.3264 11.6893 15.3038 11.5498C15.2811 11.4104 15.2185 11.2805 15.1234 11.1759C14.1536 10.1762 13.1254 9.11385 13.1254 5.83333C13.1254 4.67301 12.6645 3.56021 11.844 2.73974C11.0236 1.91926 9.91077 1.45833 8.75044 1.45833C7.59012 1.45833 6.47732 1.91926 5.65685 2.73974C4.83638 3.56021 4.37544 4.67301 4.37544 5.83333C4.37544 9.11385 3.34659 10.1762 2.37899 11.1752Z" stroke="#155DFC" stroke-width="1.45833" stroke-linecap="round" stroke-linejoin="round"/>
</g>
<defs>
<clipPath id="clip0_38_2759">
<rect width="17.5" height="17.5" fill="white"/>
</clipPath>
</defs>
</svg>
