<svg width="18" height="18" viewBox="0 0 18 18" fill="none" xmlns="http://www.w3.org/2000/svg">
<path d="M16.0416 8.75H14.2333C13.9146 8.74931 13.6045 8.85303 13.3503 9.04528C13.0962 9.23754 12.912 9.50774 12.826 9.81458L11.1124 15.9104C11.1014 15.9483 11.0783 15.9815 11.0468 16.0052C11.0152 16.0289 10.9769 16.0417 10.9374 16.0417C10.898 16.0417 10.8596 16.0289 10.828 16.0052C10.7965 15.9815 10.7735 15.9483 10.7624 15.9104L6.73742 1.58958C6.72637 1.55171 6.70335 1.51845 6.67179 1.49479C6.64024 1.47112 6.60186 1.45833 6.56242 1.45833C6.52298 1.45833 6.4846 1.47112 6.45304 1.49479C6.42149 1.51845 6.39846 1.55171 6.38742 1.58958L4.67388 7.68541C4.58817 7.99105 4.40509 8.26037 4.15242 8.4525C3.89975 8.64464 3.5913 8.74909 3.27388 8.75H1.45825" stroke="#6B7280" stroke-width="1.45833" stroke-linecap="round" stroke-linejoin="round"/>
</svg>
