<svg width="14" height="14" viewBox="0 0 14 14" fill="none" xmlns="http://www.w3.org/2000/svg">
<path d="M5.98975 12.25C6.09215 12.4273 6.23942 12.5746 6.41677 12.677C6.59412 12.7794 6.7953 12.8333 7.00008 12.8333C7.20486 12.8333 7.40604 12.7794 7.58339 12.677C7.76074 12.5746 7.90801 12.4273 8.01041 12.25" stroke="#1F2937" stroke-width="1.16667" stroke-linecap="round" stroke-linejoin="round"/>
<path d="M1.9029 8.94017C1.82669 9.02369 1.7764 9.12756 1.75814 9.23914C1.73989 9.35071 1.75445 9.46519 1.80006 9.56865C1.84567 9.6721 1.92036 9.76007 2.01504 9.82186C2.10973 9.88365 2.22033 9.91658 2.3334 9.91667H11.6667C11.7798 9.91671 11.8904 9.8839 11.9852 9.82223C12.0799 9.76056 12.1547 9.67269 12.2004 9.5693C12.2461 9.46591 12.2608 9.35146 12.2427 9.23988C12.2246 9.12829 12.1745 9.02436 12.0984 8.94075C11.3226 8.141 10.5001 7.29108 10.5001 4.66667C10.5001 3.73841 10.1313 2.84817 9.47494 2.19179C8.81856 1.53541 7.92832 1.16667 7.00006 1.16667C6.0718 1.16667 5.18157 1.53541 4.52519 2.19179C3.86881 2.84817 3.50006 3.73841 3.50006 4.66667C3.50006 7.29108 2.67698 8.141 1.9029 8.94017Z" stroke="#1F2937" stroke-width="1.16667" stroke-linecap="round" stroke-linejoin="round"/>
</svg>
