<svg width="18" height="18" viewBox="0 0 18 18" fill="none" xmlns="http://www.w3.org/2000/svg">
<path d="M10.9375 1.45834H4.37496C3.98819 1.45834 3.61725 1.61199 3.34376 1.88548C3.07027 2.15897 2.91663 2.5299 2.91663 2.91668V14.5833C2.91663 14.9701 3.07027 15.3411 3.34376 15.6145C3.61725 15.888 3.98819 16.0417 4.37496 16.0417H13.125C13.5117 16.0417 13.8827 15.888 14.1562 15.6145C14.4296 15.3411 14.5833 14.9701 14.5833 14.5833V5.10418L10.9375 1.45834Z" stroke="white" stroke-width="1.45833" stroke-linecap="round" stroke-linejoin="round"/>
<path d="M10.2084 1.45834V4.37501C10.2084 4.76178 10.362 5.13272 10.6355 5.40621C10.909 5.6797 11.2799 5.83334 11.6667 5.83334H14.5834" stroke="white" stroke-width="1.45833" stroke-linecap="round" stroke-linejoin="round"/>
<path d="M7.29171 6.5625H5.83337" stroke="white" stroke-width="1.45833" stroke-linecap="round" stroke-linejoin="round"/>
<path d="M11.6667 9.47916H5.83337" stroke="white" stroke-width="1.45833" stroke-linecap="round" stroke-linejoin="round"/>
<path d="M11.6667 12.3958H5.83337" stroke="white" stroke-width="1.45833" stroke-linecap="round" stroke-linejoin="round"/>
</svg>
